HIERARCHY
ROOT Hips
{
	OFFSET 0.000000 0.000000 0.000000
	CHANNELS 6 Xposition Yposition Zposition Xrotation Yrotation Zrotation
	JOINT ToSpine
	{
		OFFSET -0.010505 1.389070 -7.139560
		CHANNELS 3 Xrotation Yrotation Zrotation
		JOINT Spine
		{
			OFFSET 0.010505 10.000000 1.000000
			CHANNELS 3 Xrotation Yrotation Zrotation
			JOINT Spine1
			{
				OFFSET 0.000000 12.000000 1.606370
				CHANNELS 3 Xrotation Yrotation Zrotation
				JOINT Neck
				{
					OFFSET 0.000000 27.000000 2.266580
					CHANNELS 3 Xrotation Yrotation Zrotation
					JOINT Head
					{
						OFFSET 0.000000 9.000000 2.127050
						CHANNELS 3 Xrotation Yrotation Zrotation
						End Site
						{
							OFFSET 0.000000 11.000000 2.000000
						}
					}
				}
				JOINT LeftShoulder
				{
					OFFSET 8.000000 19.610900 2.864520
					CHANNELS 3 Xrotation Yrotation Zrotation
					JOINT LeftArm
					{
						OFFSET 12.000000 1.000000 0.681055
						CHANNELS 3 Xrotation Yrotation Zrotation
						JOINT LeftForeArm
						{
							OFFSET 19.000000 0.000000 -1.526080
							CHANNELS 3 Xrotation Yrotation Zrotation
							JOINT LeftHand
							{
								OFFSET 23.000000 0.000000 0.000000
								CHANNELS 3 Xrotation Yrotation Zrotation
								End Site
								{
									OFFSET 10.000000 0.000000 0.000000
								}
							}
						}
					}
				}
				JOINT RightShoulder
				{
					OFFSET -8.000000 19.610900 2.864520
					CHANNELS 3 Xrotation Yrotation Zrotation
					JOINT RightArm
					{
						OFFSET -12.000000 1.000000 0.681055
						CHANNELS 3 Xrotation Yrotation Zrotation
						JOINT RightForeArm
						{
							OFFSET -19.000000 0.000000 -1.526080
							CHANNELS 3 Xrotation Yrotation Zrotation
							JOINT RightHand
							{
								OFFSET -23.000000 0.000000 0.000000
								CHANNELS 3 Xrotation Yrotation Zrotation
								End Site
								{
									OFFSET -10.000000 0.000000 0.000000
								}
							}
						}
					}
				}
			}
		}
	}
	JOINT LeftUpLeg
	{
		OFFSET 9.000000 -7.172450 0.000000
		CHANNELS 3 Xrotation Yrotation Zrotation
		JOINT LeftLeg
		{
			OFFSET 0.000000 -44.111300 0.000000
			CHANNELS 3 Xrotation Yrotation Zrotation
			JOINT LeftFoot
			{
				OFFSET 0.000000 -36.182900 0.000000
				CHANNELS 3 Xrotation Yrotation Zrotation
				JOINT LeftToeBase
				{
					OFFSET 0.000000 -4.841840 13.000000
					CHANNELS 3 Xrotation Yrotation Zrotation
					End Site
					{
						OFFSET 0.000000 1.000000 6.000000
					}
				}
			}
		}
	}
	JOINT RightUpLeg
	{
		OFFSET -9.000000 -7.172450 0.000000
		CHANNELS 3 Xrotation Yrotation Zrotation
		JOINT RightLeg
		{
			OFFSET 0.000000 -44.055100 0.000000
			CHANNELS 3 Xrotation Yrotation Zrotation
			JOINT RightFoot
			{
				OFFSET 0.000000 -36.146900 0.000000
				CHANNELS 3 Xrotation Yrotation Zrotation
				JOINT RightToeBase
				{
					OFFSET 0.000000 -4.922560 13.000000
					CHANNELS 3 Xrotation Yrotation Zrotation
					End Site
					{
						OFFSET 0.000000 1.000000 6.000000
					}
				}
			}
		}
	}
}
MOTION
Frames: 9
Frame Time: 0.033333
0.000 94.000000 0.000 0.000000 0.000000 0.000000 0.000000 0.000000 0.000000 0.000000 0.000000 0.000000 0.000000 0.000000 0.000000 0.000000 0.000000 0.000000 0.000000 0.000000 0.000000 0.000000 0.000000 0.000000 0.000000 0.000000 0.000000 0.000000 0.000000 0.000000 0.000000 0.000000 0.000000 0.000000 0.000000 0.000000 0.000000 0.000000 0.000000 0.000000 0.000000 0.000000 0.000000 0.000000 0.000000 0.000000 0.000000 0.000000 0.000000 0.000000 0.000000 0.000000 0.000000 0.000000 0.000000 0.000000 0.000000 0.000000 0.000000 0.000000 0.000000 0.000000 0.000000 0.000000 0.000000 0.000000 0.000000 0.000000 0.000000
35.688400 94.515200 17.107300 -3.363382 -1.896735 0.954634 0.000000 0.000000 0.000000 1.659607 0.957097 1.753783 1.512032 1.421269 -4.321838 2.398313 -1.786273 7.129668 1.633639 1.337398 -5.454838 0.135520 -6.042274 -29.462086 7.303664 -26.182808 -46.602962 -18.612718 0.460048 -5.195597 -0.460465 -4.761086 -11.221935 -0.503592 12.900176 22.747030 5.934107 14.879003 55.807389 -8.459337 9.640833 4.844233 -0.165236 5.721311 3.304033 4.541279 8.158348 0.776015 6.826882 -3.099550 -1.487144 -8.812044 -0.233727 3.032825 -0.563106 -3.005106 0.741250 4.078903 -8.951208 -2.979520 5.517132 -0.303676 0.354070 -2.270412 0.225451 -11.341261 -14.149292 -4.614612 3.754509 
35.746000 94.515200 17.090200 -3.678802 -1.807005 1.015693 0.000000 0.000000 0.000000 2.179917 0.934404 1.712107 1.302154 1.398609 -4.309030 2.440135 -1.807503 6.987207 1.534677 1.238559 -5.259575 0.126055 -6.074780 -29.625834 7.313126 -26.070624 -46.247755 -21.244045 1.417126 -5.112896 -0.618494 -5.777391 -12.344634 -0.493946 12.867110 22.680887 6.073187 15.035671 55.859679 -7.933388 9.792488 4.758327 -0.142077 5.344450 3.057977 5.020175 8.022201 0.583724 6.536020 -3.002075 -1.339153 -8.761326 -0.223827 2.920710 -0.360178 -3.126502 0.762505 4.418862 -9.140019 -3.105011 5.465099 -0.224678 0.388441 -2.214742 0.221383 -11.408743 -14.114639 -4.715656 3.747978 
35.653900 94.510300 17.040800 -2.965488 -1.802363 0.966396 0.000000 0.000000 0.000000 1.436316 1.046350 1.050116 1.208734 1.378510 -3.274463 3.058461 -1.783392 6.428544 0.639925 1.028150 -4.861800 0.086031 -6.181235 -30.474510 9.692513 -27.328129 -45.035344 -20.095350 -0.027259 -5.624290 -0.348425 -4.018833 -9.812100 -0.433640 12.590380 22.329517 6.044975 15.353391 55.920584 -6.478172 9.569441 4.513605 -0.120500 4.857212 2.832293 4.132274 7.969472 0.729690 6.663395 -3.025067 -1.364217 -8.763409 -0.212867 2.774274 0.108531 -3.116926 0.743450 3.671362 -8.671506 -2.853966 5.427489 -0.588948 0.234780 -1.869658 0.190513 -11.640578 -13.838427 -5.230018 3.696674 
35.664400 94.500000 17.024500 -2.904173 -1.739267 0.958933 0.000000 0.000000 0.000000 1.296294 1.080045 1.225213 1.400830 1.458338 -3.588749 2.990664 -1.936146 6.626265 0.587446 0.942115 -4.884012 0.080128 -6.263855 -30.103629 7.204967 -26.104060 -46.359773 -17.912629 0.864807 -5.212903 -0.398555 -4.376522 -10.400009 -0.430993 12.399845 22.569034 5.218490 15.473447 55.701754 -3.710380 8.310435 4.081244 -0.176096 4.871497 4.134803 4.060489 7.874135 0.689813 6.622963 -3.434230 -1.372851 -8.364600 -0.238306 3.259663 0.313586 -2.995836 0.706536 3.603306 -8.683005 -2.847040 5.421543 -0.837701 0.255100 -1.927728 0.195681 -11.581419 -13.907139 -4.959866 3.706765 
35.694700 94.515600 17.011600 -2.982051 -1.749002 0.934338 0.000000 0.000000 0.000000 1.459685 1.024056 0.981996 1.340504 1.306655 -2.995753 2.951488 -1.625231 5.892999 0.446267 0.993690 -4.585148 0.096898 -6.053178 -31.034786 8.513361 -26.565165 -45.109359 -19.145478 0.518972 -5.384880 -0.389985 -4.343324 -10.257337 -0.398922 12.454036 22.091149 5.115543 15.599498 55.910886 -3.812144 8.082386 4.122268 -0.152011 4.984294 3.491989 4.160335 8.020069 0.765217 6.564248 -3.552480 -1.516631 -8.301213 -0.254484 3.505848 0.333430 -2.985368 0.703239 3.689501 -8.719568 -2.861702 5.432053 -0.671249 0.233662 -2.197386 0.214924 -11.176749 -13.377750 -5.077479 3.594021 
35.714200 94.524100 16.989300 -2.889660 -1.814567 0.992756 0.000000 0.000000 0.000000 1.290827 1.151191 0.651901 1.546999 1.384685 -2.560559 2.838706 -1.697459 5.994832 0.557912 1.038718 -4.983466 0.078878 -6.147983 -31.014680 9.691785 -27.620618 -44.498406 -20.635022 0.388244 -5.687452 -0.400362 -4.444984 -10.288730 -0.398117 12.482318 22.041696 5.335302 15.806588 55.809257 -4.427254 8.060851 4.292581 -0.155823 4.922661 3.619776 4.155410 7.835126 0.611077 6.362123 -3.379731 -1.438826 -8.184322 -0.251652 3.516931 0.163748 -2.876844 0.683401 3.553294 -8.773153 -2.948230 5.411050 -0.496758 0.247851 -2.095761 0.205222 -11.172498 -13.409755 -5.131216 3.602103 
35.739600 94.529800 16.971500 -2.799941 -1.842169 1.022408 0.000000 0.000000 0.000000 1.415778 1.132752 1.290064 1.299556 1.554788 -3.715669 2.985173 -1.917550 6.905209 0.634028 1.140461 -5.371782 0.090417 -6.241902 -29.870949 7.118465 -26.357889 -46.447312 -18.139343 1.251202 -5.210566 -0.387852 -4.413968 -10.038250 -0.446991 12.467239 22.671885 5.428379 15.683287 55.666912 -4.355190 8.204477 4.263980 -0.147753 5.128423 3.298277 4.095974 7.851364 0.595186 6.256516 -3.294887 -1.488236 -8.117613 -0.237822 3.348807 0.395230 -2.953221 0.693033 3.450293 -8.793349 -2.991273 5.356268 -0.407760 0.260260 -1.888473 0.189012 -11.415776 -13.596629 -5.148032 3.643263 
35.735500 94.535700 16.964800 -2.834893 -1.861535 1.028973 0.000000 0.000000 0.000000 1.531013 1.093454 1.181881 1.293847 1.485416 -3.565018 2.983847 -1.806612 6.438725 0.619815 1.017973 -4.882862 0.104478 -6.149779 -29.962747 7.435575 -26.434628 -46.229060 -18.358694 0.993560 -5.260482 -0.393936 -4.454266 -10.103295 -0.447140 12.520632 22.597639 5.304409 15.640970 55.672678 -4.457489 8.178154 4.257040 -0.156965 5.047578 3.558846 4.086168 7.914176 0.607885 6.394843 -3.265264 -1.526161 -8.309236 -0.228883 3.150103 0.851711 -3.037598 0.696972 3.469689 -8.787953 -3.004309 5.395013 -0.598668 0.214843 -2.277335 0.219001 -11.002377 -12.998977 -4.743257 3.503106 
